<svg viewBox="0 0 426.6 249.2" xmlns="http://www.w3.org/2000/svg"><g fill="green"><path d="m275 98.6 49.1 49.1c.7.7 1.1 1.5 1.1 2.4s-.4 1.7-1.1 2.4l-49.1 49.1c-.7.7-1.5 1.1-2.4 1.1s-1.7-.4-2.4-1.1l-5.3-5.3c-.7-.7-1.1-1.5-1.1-2.4s.4-1.7 1.1-2.4l41.4-41.4-41.4-41.4c-.7-.7-1.1-1.5-1.1-2.4s.4-1.7 1.1-2.4l5.3-5.3c.7-.7 1.5-1.1 2.4-1.1.9.1 1.7.4 2.4 1.1zm-40.4 0 49.1 49.1c.7.7 1.1 1.5 1.1 2.4s-.4 1.7-1.1 2.4l-49.1 49.1c-.7.7-1.5 1.1-2.4 1.1s-1.7-.4-2.4-1.1l-5.3-5.3c-.7-.7-1.1-1.5-1.1-2.4s.4-1.7 1.1-2.4l41.4-41.4-41.4-41.4c-.7-.7-1.1-1.5-1.1-2.4s.4-1.7 1.1-2.4l5.3-5.3c.7-.7 1.5-1.1 2.4-1.1.9.1 1.7.4 2.4 1.1z"/><path d="m182.5 201.6-49.1-49.1c-.7-.7-1.1-1.5-1.1-2.4s.4-1.7 1.1-2.4l49.1-49.1c.7-.7 1.5-1.1 2.4-1.1s1.7.4 2.4 1.1l5.3 5.3c.7.7 1.1 1.5 1.1 2.4s-.4 1.7-1.1 2.4l-41.4 41.4 41.4 41.4c.7.7 1.1 1.5 1.1 2.4s-.4 1.7-1.1 2.4l-5.3 5.3c-.7.7-1.5 1.1-2.4 1.1-.8 0-1.7-.4-2.4-1.1zm-40.4 0-49.1-49c-.7-.7-1.1-1.5-1.1-2.4s.4-1.7 1.1-2.4l49.1-49.1c.7-.7 1.5-1.1 2.4-1.1s1.7.4 2.4 1.1l5.3 5.3c.7.7 1.1 1.5 1.1 2.4s-.4 1.7-1.1 2.4l-41.4 41.4 41.4 41.4c.7.7 1.1 1.5 1.1 2.4s-.4 1.7-1.1 2.4l-5.3 5.3c-.7.7-1.5 1.1-2.4 1.1-.9-.1-1.7-.5-2.4-1.2z"/><path d="m75.1 69.4c-28.5 6.2-52 26.1-62.8 53.1-10.8 27-7.4 57.7 9 81.7 16.4 24.1 43.7 38.4 72.8 38.2h242.5c25-.1 48.9-10.9 65.4-29.8 16.5-18.8 24.2-43.9 21-68.7-3.2-24.9-16.9-47.2-37.6-61.2-20.7-14.1-46.5-18.6-70.8-12.3-8.2-29.1-30.9-51.9-60-60.1-29.1-8.3-60.4-.9-82.7 19.6-15.5-16.9-39.8-22.6-61.2-14.4-21.4 8.3-35.5 28.8-35.6 51.7zm19 158.2c-19.2-.2-37.6-7.9-51.2-21.4-13.6-13.6-21.3-31.9-21.6-51.1-.2-17.4 6-34.4 17.3-47.6 11.4-13.2 27.2-21.8 44.5-24.3 3.8-.3 6.9-3.4 7-7.3v-4.3-4.2c.3-17.8 12.1-33.4 29.2-38.5 17.1-5 35.5 1.6 45.4 16.5 1.8 2.8 5.2 4 8.4 3.1 1.4-.4 2.6-1.2 3.5-2.3 12-13.6 28.8-22.2 46.9-24s36.2 3.3 50.7 14.2c14.5 11 24.3 27 27.6 44.9.4 2.1 1.7 3.9 3.6 5s4.2 1.2 6.3.4c20.2-7.5 42.7-5.7 61.5 5 18.7 10.7 31.7 29.2 35.5 50.4s-2.1 43-16 59.5-34.5 25.9-56 25.8z"/></g></svg>
