<svg enable-background="new 0 0 293 249.2" viewBox="0 0 293 249.2" xmlns="http://www.w3.org/2000/svg"><path d="m283.1 216-66.7-66.7-6.1 6.1-14.1-14.1c11.9-14.4 19.1-32.9 19.1-53 0-46-37.5-83.5-83.5-83.5s-83.5 37.5-83.5 83.5 37.5 83.5 83.5 83.5c19.8 0 37.9-6.9 52.2-18.4l14.2 14.2-6.1 6.1 66.7 66.7c3.3 3.3 7.7 5 12.1 5s8.8-1.7 12.1-5c6.8-6.9 6.8-17.7.1-24.4zm-217.7-127.8c0-36.6 29.8-66.4 66.4-66.4s66.4 29.8 66.4 66.4-29.8 66.4-66.4 66.4-66.4-29.8-66.4-66.4z" fill="green"/><g fill="none" stroke="#30232a" stroke-miterlimit="10"><path d="m158.2 94.7 86.9 27.4" stroke-width="5.1781"/><path d="m158.2 94.7 43.5 13.7" stroke-width="12.4273"/><path d="m115.5 107.3-54.2 64.8" stroke-width="5.1781"/><path d="m115.5 107.3-32.1 38.4" stroke-width="12.4273"/><path d="m256.6 59.6-.7 52.5" stroke-width="5.1781"/><path d="m3.7 154.4 39.8 22" stroke-width="5.1781"/><circle cx="132.6" cy="86.7" r="26.9" stroke-width="12.4273"/><circle cx="256" cy="125.5" r="12.7" stroke-width="5.1781"/><circle cx="54.8" cy="181.2" r="12.7" stroke-width="5.1781"/></g><path d="m132 24.3c6.5 0 13 1 19.3 3 16.4 5.2 29.8 16.4 37.7 31.6s9.5 32.7 4.3 49c-4.2 13.3-12.4 24.7-23.7 32.8-10.9 7.9-24.3 12.2-37.7 12.2-6.5 0-13-1-19.3-3-16.4-5.2-29.8-16.4-37.7-31.6s-9.5-32.7-4.3-49c4.2-13.3 12.4-24.6 23.7-32.8 10.9-7.9 24.3-12.2 37.7-12.2zm0-4.1c-29.1 0-56.1 18.7-65.3 47.9-11.3 36.1 8.7 74.5 44.8 85.9 6.8 2.1 13.8 3.2 20.6 3.2 29.1 0 56.1-18.7 65.3-47.9 11.3-36.1-8.7-74.5-44.8-85.9-6.9-2.2-13.8-3.2-20.6-3.2z" fill="none"/></svg>
