<svg xmlns="http://www.w3.org/2000/svg" xmlns:xlink="http://www.w3.org/1999/xlink" id="svg" version="1.1" width="400" height="400" viewBox="0, 0, 400,400"><g id="svgg"><path id="path0" d="M183.800 107.055 C 176.760 114.192,169.846 121.149,168.436 122.516 C 167.027 123.882,164.273 126.620,162.318 128.600 C 160.363 130.580,156.747 134.222,154.282 136.692 C 145.759 145.235,141.382 149.619,136.900 154.101 C 134.425 156.575,130.735 160.265,128.700 162.301 C 126.665 164.336,122.975 168.026,120.500 170.501 C 110.559 180.440,108.416 182.596,103.993 187.104 C 90.365 200.995,90.665 200.617,92.100 202.083 C 92.595 202.589,93.809 203.992,94.798 205.201 C 97.158 208.086,97.467 208.400,97.950 208.400 C 98.174 208.400,121.049 185.720,148.783 158.000 C 182.168 124.631,199.478 107.600,200.009 107.600 C 200.539 107.600,217.824 124.618,251.197 158.000 C 278.910 185.720,301.772 208.400,302.002 208.400 C 302.544 208.400,305.529 205.405,306.786 203.600 C 307.323 202.830,308.100 201.896,308.513 201.525 C 309.508 200.632,308.279 199.276,288.952 179.949 C 286.174 177.172,282.438 173.436,280.651 171.648 C 278.863 169.860,275.193 166.193,272.495 163.499 C 269.798 160.804,265.928 156.923,263.895 154.873 C 261.062 152.016,253.353 144.325,248.293 139.305 C 248.124 139.137,237.900 128.875,225.573 116.500 L 203.160 94.000 199.880 94.039 L 196.600 94.078 183.800 107.055 M193.148 191.421 C 191.307 193.302,186.650 197.981,182.800 201.818 C 178.950 205.655,175.666 208.930,175.502 209.097 C 174.977 209.631,159.668 224.982,159.184 225.459 C 158.810 225.829,145.476 239.144,142.310 242.310 C 141.870 242.750,137.975 246.649,133.655 250.974 C 129.335 255.299,125.620 259.017,125.400 259.237 C 125.180 259.457,121.490 263.147,117.200 267.437 C 112.910 271.727,109.270 275.364,109.111 275.519 C 108.952 275.673,107.422 277.257,105.711 279.038 C 104.000 280.819,100.035 284.911,96.900 288.131 C 90.176 295.038,90.401 294.194,94.200 298.253 C 94.640 298.724,95.540 299.755,96.200 300.545 C 97.984 302.682,97.765 302.833,108.496 292.096 C 109.376 291.216,113.066 287.526,116.696 283.896 C 125.339 275.254,126.144 274.449,133.843 266.748 C 137.444 263.147,141.157 259.450,142.095 258.534 C 143.033 257.618,146.153 254.468,149.029 251.534 C 151.905 248.600,155.595 244.916,157.229 243.346 C 158.863 241.776,162.739 237.906,165.842 234.746 C 168.946 231.586,172.816 227.712,174.442 226.139 C 176.069 224.565,179.769 220.875,182.665 217.939 C 193.985 206.459,199.444 201.200,200.040 201.200 C 200.382 201.200,202.448 203.010,204.631 205.223 C 206.814 207.435,209.395 210.000,210.367 210.923 C 212.627 213.067,220.149 220.591,223.876 224.434 C 225.458 226.065,229.688 230.300,233.276 233.844 C 236.864 237.388,240.537 241.078,241.437 242.044 C 242.337 243.010,245.127 245.798,247.637 248.239 C 250.147 250.681,254.383 254.911,257.051 257.639 C 259.719 260.368,263.949 264.622,266.451 267.092 C 268.953 269.563,272.634 273.253,274.630 275.292 C 276.627 277.332,279.957 280.649,282.030 282.663 C 284.104 284.678,287.971 288.548,290.624 291.263 C 297.376 298.173,301.423 302.000,301.978 302.000 C 302.502 302.000,305.638 298.879,307.200 296.802 C 307.750 296.071,308.445 295.224,308.745 294.920 C 309.207 294.452,308.626 293.689,304.945 289.930 C 302.555 287.490,299.026 283.853,297.102 281.847 C 295.178 279.841,292.904 277.503,292.050 276.652 C 291.195 275.801,287.526 272.134,283.896 268.504 C 280.266 264.874,276.576 261.184,275.696 260.304 C 273.619 258.228,260.557 245.166,258.548 243.157 C 257.696 242.305,253.983 238.592,250.296 234.904 C 246.608 231.217,242.895 227.503,242.044 226.652 C 241.192 225.801,237.909 222.538,234.748 219.402 C 231.587 216.265,227.894 212.552,226.542 211.150 C 225.190 209.747,221.500 206.050,218.342 202.933 C 215.184 199.816,210.553 195.181,208.052 192.633 L 203.503 188.000 200.000 188.000 L 196.497 188.000 193.148 191.421 " stroke="none" fill="white" fill-rule="evenodd"/></g></svg>
