

<svg version="1.1" xmlns="http://www.w3.org/2000/svg" xmlns:xlink="http://www.w3.org/1999/xlink" x="0px" y="0px" viewBox="0 0 1000 1000" enable-background="new 0 0 1000 1000" xml:space="preserve">
<g><path fill="green" d="M816.1,490.5c-25.3,0-47.4-11.1-63.2-26.9c-3.2,9.5-6.3,20.5-11.1,30c20.5,15.8,45.8,26.9,74.3,26.9c64.8,0,118.5-52.2,118.5-117c0-64.8-53.7-117-118.5-117c-25.3,0-47.4,7.9-66.4,20.5c9.5,26.9,14.2,53.7,14.2,83.8c0,17.4-3.2,34.8-6.3,52.2h137.5C880.9,470,850.9,490.5,816.1,490.5L816.1,490.5L816.1,490.5z M816.1,558.5c-23.7,0-45.8-6.3-66.4-15.8c-37.9,9.5-74.3,23.7-91.7,68c14.2,4.7,53.7,30,63.2,47.4H990c-15.8-56.9-64.8-104.3-107.5-115.4C862,553.7,839.8,558.5,806.1,558.5L816.1,550.5L816.1,558.5z M183.9,519c28.5,0,53.7-11.1,74.3-26.9c-4.7-9.5-7.9-19-11.1-30c-15.8,17.4-37.9,26.9-63.2,26.9c-34.8,0-64.8-20.5-79-49h137.5c-3.2-17.4-6.3-34.8-6.3-52.2c0-30,4.7-56.9,14.2-83.8c-19-12.6-42.7-20.5-66.4-20.5c-64.8,0-118.5,52.2-118.5,117C65.3,466.8,119.1,519,183.9,519L183.9,519L183.9,519z M500,610.6c123.3,0,224.5-99.6,224.5-221.3S624.9,168.1,500,168.1c-123.3,0-224.5,99.6-224.5,221.3S376.7,610.6,500,610.6L500,610.6z M642.3,468.4c-26.9,53.7-75.9,79-142.3,79c-66.4,0-115.4-25.3-142.3-79H642.3L642.3,48.4z M629.6,648.6c-37.9,20.5-82.2,25.3-129.6,25.3c-47.4,0-90.1-4.7-129.6-25.3c-83.8,22.1-156.5,72.7-186.5,183.4h632.3C786.1,721.3,713.4,670.7,629.6,648.6L629.6,648.6z M341.9,610.6c-17.4-44.3-53.7-58.5-91.7-68c-20.5,11.1-42.7,15.8-66.4,15.8s-47.4-6.3-66.4-15.8C74.8,553.7,25.8,601.2,10,658.1h268.7C288.2,645.4,327.7,615.4,341.9,610.6L341.9,610.6L341.9,610.6z"/></g>
</svg>
