<svg enable-background="new 0 0 375.8 249.2" viewBox="0 0 375.8 249.2" xmlns="http://www.w3.org/2000/svg"><g fill="green"><path d="m270.2 181.1-12.9-1.2c-.6-1.8-1.5-3.9-2.4-5.7l8.4-10.2c.9-1.2.9-3-.3-3.9l-11.1-10.8c-1.2-1.2-2.7-1.2-3.9-.3l-10.2 8.4c-1.8-.9-3.6-1.8-5.7-2.4l-1.2-12.9c0-1.5-1.5-2.7-3-2.7h-15.3c-1.5 0-2.7 1.2-3 2.7l-1.2 12.9c-1.8.6-3.9 1.5-5.7 2.4l-10.2-8.4c-1.2-.9-3-.9-3.9.3l-11.1 11.1c-.9.9-.9 2.7 0 3.9l8.4 10.2c-.9 1.8-1.8 3.6-2.4 5.7l-12.9.9c-1.5 0-2.7 1.5-2.7 3v15.6c0 1.5 1.2 2.7 2.7 3l12.9 1.2c.6 1.8 1.5 3.9 2.4 5.7l-8.4 10.2c-.9 1.2-.9 3 .3 3.9l11.1 11.1c1.2 1.2 2.7 1.2 3.9.3l10.2-8.4c1.8.9 3.6 1.8 5.7 2.4l1.2 12.9c0 1.5 1.5 2.7 3 2.7h15.6c1.5 0 2.7-1.2 3-2.7l1.2-12.9c1.8-.6 3.9-1.5 5.7-2.4l10.2 8.4c1.2.9 3 .9 3.9-.3l11.1-11.1c1.2-1.2 1.2-2.7.3-3.9l-8.4-10.2c.9-1.8 1.8-3.6 2.4-5.7l12.9-1.2c1.5 0 2.7-1.5 2.7-3v-15.6c-.6-1.5-1.8-2.7-3.3-3zm-49.9 29.5c-10.2 0-18.6-8.4-18.6-18.6s8.4-18.6 18.6-18.6 18.6 8.4 18.6 18.6-8.4 18.6-18.6 18.6z"/><path d="m323 85.8h-.5c-3-31-29.2-55.2-60.9-55.2-6.6 0-13 1.1-19.3 3.1-14.8-13.9-33.9-21.6-54.4-21.6-27.1 0-52.5 14.1-67.1 37.1-39.2 2.8-70.7 34.3-73.4 73.6-24.2 3-43.1 23.6-43.1 48.6 0 26.9 21.9 48.9 48.9 48.9h111.6v-11.9h-111.7c-20.4 0-37-16.6-37-37s16.6-37 37-37h5.9v-5.9c0-37.3 30.4-67.7 67.7-67.7 32.4 0 51.4 23.5 51.4 23.5s9.9-5.1 22.2-5.1c27.1 0 49.3 22.1 49.3 49.3v5.9h12.1c20.4 0 37 16.6 37 37 .1 16.2-10.4 29.9-24.9 35 1.6 3.9 3.9 7.1 4.9 10.8 14.9-5.6 26.3-18.2 30.3-33.7h14c26.9 0 48.9-21.9 48.9-48.9 0-26.9-22-48.8-48.9-48.8zm0 85.9h-12.4v-.2c0-26.9-21.9-48.9-48.9-48.9h-.6c-3-31-29.2-55.2-60.9-55.2-6.6 0-13 1.1-19.3 3.1-12.7-11.9-28.6-19.2-45.7-21 12.9-15.8 32.2-25.5 52.8-25.5 34.4 0 51.4 23.5 51.4 23.5s8.8-5.1 22.2-5.1c27.1 0 49.3 22.1 49.3 49.3v5.9h12.1c20.4 0 37 16.6 37 37s-16.6 37.1-37 37.1z"/><path d="m121.2 53.2 3-16.1c.5-1.8-1-3.8-2.8-4.3l-19.1-5c-1.8-.5-3.7.6-4.5 2.4l-5.6 15.4c-2.4.2-5.3.6-7.8 1.1l-9.8-13.6c-1.2-1.5-3.4-2.1-4.9-.9l-17.2 10.1c-1.9 1.1-2.3 2.9-1.6 4.7l7 15.2c-1.7 1.9-3.4 3.8-4.8 6.2l-16.2-2.7c-1.8-.5-3.8 1-4.3 2.8l-5 19.1c-.5 1.8.6 3.7 2.4 4.5l15.4 5.6c.2 2.4.6 5.3 1.1 7.8l-13.5 10c-1.5 1.2-2.1 3.4-.9 4.9l5.6 9.6 17.5-1.6 1.4-26.9 21.9-26.9 22.5-16.3z"/></g></svg>
