<svg viewBox="0 0 237 189" xmlns="http://www.w3.org/2000/svg"><g fill="green" stroke="green"><path d="m60.1 169.8c-14.2 0-26.4-5.1-36.5-15.2s-15.2-22.3-15.2-36.5c0-10.2 2.7-19.4 8.2-27.9 5.5-8.4 12.6-14.7 21.6-18.9-.2-2.2-.2-3.8-.2-5 0-16.3 5.8-30.2 17.3-41.8 11.5-11.3 25.4-17.1 41.7-17.1 12.1 0 23.2 3.4 33 10.2 9.9 6.8 17.1 15.6 21.6 26.5 5.4-4.8 11.8-7.2 19.2-7.2 8.1 0 15.1 2.9 20.9 8.7s8.7 12.7 8.7 20.9c0 5.8-1.6 11.1-4.7 15.9 9.9 2.3 18.1 7.5 24.6 15.5s9.7 17.2 9.7 27.6c0 12.2-4.3 22.7-13 31.3-8.6 8.7-19.1 13-31.3 13h-12.3m-113.3 0" fill="none" stroke-dasharray="18.0465 9.0232" stroke-linejoin="round" stroke-miterlimit="10" stroke-width="9.0232"/><path d="m156.6 145.4c0 .7-.3 1.4-.8 1.9l-4.2 4.2c-.6.6-1.2.8-1.9.8s-1.4-.3-1.9-.8l-32.6-32.6-32.6 32.6c-.6.6-1.2.8-1.9.8s-1.4-.3-1.9-.8l-4.2-4.2c-.6-.6-.8-1.2-.8-1.9s.3-1.4.8-1.9l38.7-38.7c.6-.6 1.2-.8 1.9-.8s1.4.3 1.9.8l38.7 38.7c.5.6.8 1.2.8 1.9zm0 31.9c0 .7-.3 1.4-.8 1.9l-4.2 4.2c-.6.6-1.2.8-1.9.8s-1.4-.3-1.9-.8l-32.6-32.6-32.6 32.6c-.6.6-1.2.8-1.9.8s-1.4-.3-1.9-.8l-4.2-4.2c-.6-.6-.8-1.2-.8-1.9s.3-1.4.8-1.9l38.7-38.7c.6-.6 1.2-.8 1.9-.8s1.4.3 1.9.8l38.7 38.7c.5.5.8 1.2.8 1.9z"/></g></svg>
