<svg viewBox="0 0 237 189" xmlns="http://www.w3.org/2000/svg"><g fill="green" stroke="green"><path d="m65 146.3c-12.1 0-22.4-4.3-31-12.9s-12.9-18.9-12.9-31c0-8.6 2.3-16.5 6.9-23.6s10.7-12.5 18.3-16c-.1-1.8-.2-3.2-.2-4.2 0-13.8 4.9-25.6 14.7-35.4s21.6-14.7 35.4-14.7c10.3 0 19.6 2.9 28 8.6s14.5 13.2 18.3 22.5c4.6-4 10-6.1 16.2-6.1 6.9 0 12.8 2.4 17.7 7.3s7.3 10.8 7.3 17.7c0 4.9-1.3 9.4-4 13.5 8.4 2 15.4 6.3 20.8 13.2 5.5 6.8 8.2 14.6 8.2 23.4 0 10.4-3.7 19.2-11 26.6-3.3 3.3-6.8 5.8-10.7 7.6m-122 3.5" fill="none" stroke-dasharray="15.3059 7.6529" stroke-linejoin="round" stroke-miterlimit="10" stroke-width="7.6529"/><path d="m108.2 117c-.1 4.4-.8 7.9-2.1 10.7l-22.6 46.2c-.7 1.3-1.6 2.3-2.9 3.1-1.3.7-2.6 1.1-4.1 1.1-1.4 0-2.8-.4-4-1.2-1.3-.8-2.2-1.8-2.7-3.2l-21.2-46.8c-1.3-2.8-1.9-6.4-1.8-10.8.1-8.5 3.2-15.7 9.3-21.6s13.4-8.8 21.9-8.7 15.7 3.2 21.6 9.3c5.8 6.1 8.7 13.4 8.6 21.9zm-20.1 10.5c3-3 4.6-6.6 4.7-10.8s-1.4-7.9-4.3-10.9c-3-3-6.6-4.6-10.8-4.7s-7.9 1.4-10.9 4.3c-3 3-4.6 6.6-4.7 10.8s1.4 7.9 4.3 10.9c3 3 6.6 4.6 10.8 4.7 4.2.2 7.9-1.3 10.9-4.3z"/><path d="m130.2 97.4c5.3-2.3 11-3.4 16.8-3.4 5.9 0 11.5 1.1 16.8 3.4 5.4 2.3 10 5.4 13.8 9.2 3.9 3.9 6.9 8.5 9.2 13.8 2.3 5.4 3.4 11 3.4 16.8s-1.1 11.4-3.4 16.8-5.3 10-9.2 13.8c-3.9 3.9-8.5 7-13.8 9.3s-11 3.5-16.9 3.5-11.5-1.1-16.9-3.4c-5.3-2.3-10-5.4-13.8-9.3-3.9-3.9-6.9-8.5-9.2-13.8s-3.4-10.9-3.4-16.8 1.1-11.5 3.4-16.8 5.4-10 9.2-13.8c4-4 8.7-7 14-9.3zm46.8 61.9c4.8-6.6 7.2-13.9 7.2-22 0-5-1-9.8-2.9-14.4-2-4.6-4.6-8.5-7.9-11.8s-7.3-6-11.8-7.9c-4.6-2-9.4-2.9-14.4-2.9s-9.8 1-14.4 2.9-8.5 4.6-11.8 7.9-6 7.3-7.9 11.8-2.9 9.4-2.9 14.4c0 8.1 2.4 15.4 7.2 22 2.1-10.5 7.1-15.8 14.8-15.8 4.2 4.1 9.3 6.2 15.1 6.2 5.9 0 10.9-2.1 15.1-6.2 7.5-.1 12.4 5.2 14.6 15.8zm-16.8-18.2c3.6-3.6 5.4-8 5.4-13.1s-1.8-9.5-5.4-13.1-8-5.4-13.1-5.4-9.5 1.8-13.1 5.4-5.4 8-5.4 13.1 1.8 9.5 5.4 13.1 8 5.4 13.1 5.4 9.4-1.8 13.1-5.4z"/></g></svg>
